<?xml version="1.0" standalone="no"?>
<!DOCTYPE svg PUBLIC "-//W3C//DTD SVG 20010904//EN"
 "http://www.w3.org/TR/2001/REC-SVG-20010904/DTD/svg10.dtd">
<svg version="1.0" xmlns="http://www.w3.org/2000/svg"
 width="512.000000pt" height="512.000000pt" viewBox="0 0 512.000000 512.000000"
 preserveAspectRatio="xMidYMid meet">
<metadata>
Created by potrace 1.14, written by Peter Selinger 2001-2017
</metadata>
<g transform="translate(0.000000,512.000000) scale(0.100000,-0.100000)"
fill="#000000" stroke="none">
<path d="M1288 5087 c-41 -25 -73 -61 -88 -103 -7 -18 -11 -120 -12 -265 0
-199 3 -242 16 -271 22 -45 72 -92 115 -107 23 -7 226 -11 660 -11 597 -1 628
-2 665 -20 50 -25 90 -70 104 -118 7 -25 11 -349 10 -1047 0 -716 4 -1018 11
-1039 19 -49 51 -86 94 -108 40 -21 55 -23 282 -24 147 -1 250 3 265 9 47 20
90 58 112 100 l22 42 0 1415 1 1415 -22 47 c-16 34 -35 56 -69 78 l-48 30
-1040 0 -1041 0 -37 -23z"/>
<path d="M555 4323 c-49 -12 -88 -39 -118 -82 l-32 -46 0 -1040 0 -1040 27
-45 c16 -28 43 -55 70 -70 42 -25 46 -25 285 -26 210 -1 247 1 280 16 46 21
77 50 100 93 17 30 18 99 20 1058 1 959 0 1029 -16 1065 -22 48 -70 95 -113
111 -33 11 -459 17 -503 6z"/>
<path d="M1729 3930 c-65 -18 -122 -71 -139 -130 -6 -23 -10 -535 -10 -1440 0
-1345 1 -1407 19 -1445 24 -53 48 -77 96 -100 39 -18 78 -19 1050 -20 579 0
1026 3 1048 8 49 12 115 72 131 120 9 28 13 105 12 275 -1 210 -3 241 -20 271
-25 47 -44 65 -91 90 -40 20 -53 21 -680 23 -699 3 -668 1 -726 61 -55 57 -52
8 -54 1117 -1 791 -4 1032 -14 1055 -15 38 -46 70 -91 98 -33 21 -47 22 -270
23 -129 0 -247 -2 -261 -6z"/>
<path d="M4080 3927 c-50 -12 -97 -51 -122 -100 l-21 -42 -1 -1000 c-1 -550 2
-1020 7 -1045 9 -56 50 -108 107 -138 42 -21 55 -22 280 -22 225 0 238 1 280
23 24 12 58 39 74 60 l31 39 3 1031 c2 716 0 1043 -8 1069 -14 49 -54 95 -99
115 -29 13 -78 16 -266 18 -126 1 -246 -3 -265 -8z"/>
<path d="M4074 784 c-54 -19 -81 -41 -110 -90 l-27 -46 0 -243 c-1 -232 0
-244 22 -286 26 -49 40 -62 96 -89 36 -18 64 -20 273 -20 253 0 279 4 335 58
53 50 57 73 57 334 0 255 -4 279 -51 330 -54 58 -74 61 -327 63 -156 1 -245
-3 -268 -11z"/>
</g>
</svg>
