<?xml version="1.0" standalone="no"?>
<!DOCTYPE svg PUBLIC "-//W3C//DTD SVG 20010904//EN"
 "http://www.w3.org/TR/2001/REC-SVG-20010904/DTD/svg10.dtd">
<svg version="1.0" xmlns="http://www.w3.org/2000/svg"
 width="512.000000pt" height="512.000000pt" viewBox="0 0 512.000000 512.000000"
 preserveAspectRatio="xMidYMid meet">
<metadata>
Created by potrace 1.14, written by Peter Selinger 2001-2017
</metadata>
<g transform="translate(0.000000,512.000000) scale(0.100000,-0.100000)"
fill="#000000" stroke="none">
<path d="M1289 5090 c-47 -25 -86 -71 -98 -118 -6 -20 -9 -143 -8 -272 2 -227
3 -236 25 -273 30 -48 78 -84 122 -92 19 -4 309 -7 645 -7 378 -1 621 -5 640
-11 48 -16 94 -55 116 -100 l22 -41 -1 -1021 c0 -982 1 -1022 19 -1064 22 -51
48 -76 103 -101 35 -16 68 -18 280 -17 l241 2 47 27 c33 20 53 41 71 77 l25
50 -2 1425 -1 1424 -30 44 c-17 23 -49 53 -70 65 l-40 23 -1035 -1 c-1001 0
-1036 -1 -1071 -19z"/>
<path d="M531 4314 c-51 -15 -86 -45 -112 -96 -18 -36 -19 -74 -19 -1068 0
-994 1 -1032 19 -1068 25 -49 58 -78 107 -96 49 -17 469 -20 519 -3 51 17 96
58 118 106 20 45 20 62 20 1062 -1 994 -1 1017 -21 1061 -23 52 -70 92 -127
106 -59 15 -450 12 -504 -4z"/>
<path d="M1715 3925 c-48 -14 -98 -56 -121 -102 -18 -37 -18 -92 -19 -1443 -1
-796 3 -1421 8 -1441 12 -48 57 -102 104 -125 36 -17 89 -18 1053 -19 1078 -1
1054 -2 1119 46 64 47 70 75 71 340 1 255 -4 285 -53 337 -55 59 -25 57 -734
62 l-651 5 -44 30 c-23 17 -53 49 -65 70 l-21 40 -1 1025 -1 1025 -26 53 c-19
39 -37 59 -72 79 l-46 27 -232 1 c-134 0 -248 -4 -269 -10z"/>
<path d="M4104 3934 c-5 -1 -21 -5 -36 -8 -39 -9 -98 -64 -119 -111 -18 -38
-19 -95 -19 -1057 0 -1132 -4 -1066 68 -1128 55 -47 90 -52 351 -48 l238 3 40
28 c22 15 50 46 64 70 l24 42 1 1020 c0 626 -4 1032 -10 1052 -13 45 -60 99
-103 120 -31 14 -71 17 -263 18 -125 0 -231 0 -236 -1z"/>
<path d="M4064 784 c-54 -19 -81 -43 -115 -107 -18 -35 -20 -55 -19 -277 1
-228 2 -241 24 -282 12 -24 42 -56 65 -73 l43 -30 262 0 263 0 40 28 c22 15
50 46 63 70 24 41 24 49 25 277 1 129 -3 249 -8 267 -14 46 -63 101 -105 120
-30 13 -80 16 -271 17 -156 1 -245 -2 -267 -10z"/>
</g>
</svg>
